<?xml version="1.0" encoding="UTF-8"?>
<svg id="Layer_1" xmlns="http://www.w3.org/2000/svg" xmlns:xlink="http://www.w3.org/1999/xlink" version="1.1" viewBox="0 0 24 24">
  <!-- Generator: Adobe Illustrator 29.1.0, SVG Export Plug-In . SVG Version: 2.1.0 Build 142)  -->
  <defs>
    <style>
      .st0 {
        fill: url(#linear-gradient);
      }

      .st0, .st1 {
        fill-rule: evenodd;
      }

      .st1 {
        fill: url(#linear-gradient1);
      }
    </style>
    <linearGradient id="linear-gradient" x1="12.1" y1="809.1" x2="12.1" y2="827.2" gradientTransform="translate(0 -806)" gradientUnits="userSpaceOnUse">
      <stop offset="0" stop-color="#4c9ee2"/>
      <stop offset="1" stop-color="#73bfff"/>
    </linearGradient>
    <linearGradient id="linear-gradient1" x1="12.1" y1="813.7" x2="12.1" y2="827.2" gradientTransform="translate(0 -806)" gradientUnits="userSpaceOnUse">
      <stop offset="0" stop-color="#fff"/>
      <stop offset="1" stop-color="#fff" stop-opacity=".6"/>
    </linearGradient>
  </defs>
  <g id="Group_32">
    <path id="Union" class="st0" d="M3.3,9.6c-.3.2-.3.6,0,.8.2.3.6.3.8.1l.5-.4.7,10.4c0,.3.3.5.6.5h12.5c.3,0,.6-.2.6-.5l.7-10.5.6.4c.3.2.6.1.8-.1.2-.3.1-.6-.1-.8L12.4,3.2c-.2-.2-.5-.2-.7,0L3.3,9.6Z"/>
    <path id="Union_2" class="st1" d="M12.6,8.2c0,.3-.2.5-.5.5s-.5-.2-.5-.5.2-.5.5-.5.5.2.5.5ZM14.5,11.4c0,.9-1.1,1.6-2.5,1.6s-2.5-.7-2.5-1.6,1.1-1.6,2.5-1.6,2.5.7,2.5,1.6ZM14.2,9.3c.3,0,.5-.2.5-.5s-.2-.5-.5-.5-.5.2-.5.5.2.5.5.5ZM10.5,8.7c0,.3-.2.5-.5.5s-.5-.2-.5-.5.2-.5.5-.5.5.2.5.5ZM12.1,13.8c-2,0-3.7,1.7-3.7,3.7v3.7h7.4v-3.7c0-2-1.7-3.7-3.7-3.7Z"/>
  </g>
</svg>