<?xml version="1.0" encoding="UTF-8"?>
<svg id="Layer_1" xmlns="http://www.w3.org/2000/svg" xmlns:xlink="http://www.w3.org/1999/xlink" version="1.1" viewBox="0 0 24 24">
  <!-- Generator: Adobe Illustrator 29.1.0, SVG Export Plug-In . SVG Version: 2.1.0 Build 142)  -->
  <defs>
    <style>
      .st0 {
        fill: url(#linear-gradient2);
      }

      .st1 {
        fill: url(#linear-gradient1);
      }

      .st2 {
        fill: url(#linear-gradient);
      }

      .st3 {
        fill: #fff9e2;
      }

      .st4 {
        fill: #fff;
      }

      .st5 {
        fill: #fff6e1;
      }

      .st6 {
        fill: #ffe5ac;
      }
    </style>
    <linearGradient id="linear-gradient" x1="12" y1="17.9" x2="12" y2="15.1" gradientTransform="translate(0 19.9) scale(1 -1)" gradientUnits="userSpaceOnUse">
      <stop offset="0" stop-color="#ffd986"/>
      <stop offset="1" stop-color="#fabf3e"/>
    </linearGradient>
    <linearGradient id="linear-gradient1" x1="12" y1="15.1" x2="12" y2="-2.1" gradientTransform="translate(0 19.9) scale(1 -1)" gradientUnits="userSpaceOnUse">
      <stop offset="0" stop-color="#ffd986"/>
      <stop offset="1" stop-color="#fabf3e"/>
    </linearGradient>
    <linearGradient id="linear-gradient2" x1="19.5" y1="13.8" x2="11.9" y2="-1.7" gradientTransform="translate(0 19.9) scale(1 -1)" gradientUnits="userSpaceOnUse">
      <stop offset="0" stop-color="#ffd984"/>
      <stop offset="1" stop-color="#f5b42a"/>
    </linearGradient>
  </defs>
  <g id="Group">
    <path id="Vector" class="st2" d="M14.7,2h-5.3c-.7,0-1.2.5-1.2,1.2v1.6h1.2v-1.3c0-.1.1-.2.2-.2h4.8c.1,0,.2.1.2.2v1.3h1.2v-1.6c0-.7-.5-1.2-1.2-1.2Z"/>
    <path id="Vector_2" class="st1" d="M2.6,14l1.6,7.1c.1.6.6.9,1.2.9h13.2c.6,0,1.1-.4,1.2-.9l1.6-7.1v-1.8l-1.6-6.5c-.1-.5-.6-.9-1.2-.9H5.4c-.6,0-1.1.4-1.2.9l-1.6,7.1v1.2Z"/>
    <path id="Vector_3" class="st0" d="M19.8,5.7c-.1-.5-.6-.9-1.2-.9h-.2c0,0,.1.2.1.3l1.2,4.7c.3,1.2.7,2.4.4,3.6-1,4.7-5.2,8-9.9,8-2,0-3.9,0-5.9,0,.2.4.6.6,1,.6h13.2c.6,0,1.1-.4,1.2-.9l1.6-7.1v-1.8l-1.6-6.5Z"/>
    <g id="Group_2">
      <g id="Group_3">
        <path id="Vector_4" class="st3" d="M12,10.4c-.3,0-.6-.3-.6-.6v-2c0-.3.3-.6.6-.6s.6.3.6.6v2c0,.3-.3.6-.6.6Z"/>
      </g>
      <g id="Group_4">
        <path id="Vector_5" class="st3" d="M16.2,10.4c-.3,0-.5-.2-.6-.4l-.6-2c0-.3,0-.7.4-.8.3,0,.7,0,.8.4l.6,2c0,.3,0,.7-.4.8,0,0-.1,0-.2,0Z"/>
      </g>
      <g id="Group_5">
        <path id="Vector_6" class="st3" d="M7.8,10.4c0,0-.1,0-.2,0-.3,0-.5-.4-.4-.8l.6-2c0-.3.4-.5.8-.4.3,0,.5.4.4.8l-.6,2c0,.3-.3.4-.6.4Z"/>
      </g>
    </g>
    <g id="Group_6">
      <g id="Group_7">
        <path id="Vector_7" class="st3" d="M12,19.3c-.3,0-.6-.3-.6-.6v-2c0-.3.3-.6.6-.6s.6.3.6.6v2c0,.3-.3.6-.6.6Z"/>
      </g>
      <g id="Group_8">
        <path id="Vector_8" class="st3" d="M15.6,19.3c0,0-.1,0-.2,0-.3,0-.5-.4-.4-.8l.6-2c0-.3.4-.5.8-.4.3,0,.5.4.4.8l-.6,2c0,.3-.3.4-.6.4Z"/>
      </g>
      <g id="Group_9">
        <path id="Vector_9" class="st3" d="M8.4,19.3c-.3,0-.5-.2-.6-.4l-.6-2c0-.3,0-.7.4-.8.3,0,.7,0,.8.4l.6,2c0,.3,0,.7-.4.8,0,0-.1,0-.2,0Z"/>
      </g>
    </g>
    <g id="Vector_10">
      <path class="st4" d="M21.6,14H2.4c-.2,0-.4-.2-.4-.4v-1c0-.2.2-.4.4-.4h19.2c.2,0,.4.2.4.4v1c0,.2-.2.4-.4.4Z"/>
    </g>
    <g id="Vector_11">
      <path class="st6" d="M13.8,14.4h-3.5c-.2,0-.4-.2-.4-.4v-1.9c0-.2.2-.4.4-.4h3.5c.2,0,.4.2.4.4v1.9c0,.2-.2.4-.4.4Z"/>
    </g>
    <path id="Vector_12" class="st5" d="M13.8,11.7h-.8c0,1.2-.9,2.1-2.1,2.1h-1v.2c0,.2.2.4.4.4h3.5c.2,0,.4-.2.4-.4v-1.9c0-.2-.2-.4-.4-.4Z"/>
  </g>
</svg>